<?xml version="1.0" encoding="utf-8"?>
<!-- Generator: Adobe Illustrator 24.1.2, SVG Export Plug-In . SVG Version: 6.00 Build 0)  -->
<svg version="1.1" id="Слой_1" focusable="false"
	 xmlns="http://www.w3.org/2000/svg" xmlns:xlink="http://www.w3.org/1999/xlink" x="0px" y="0px" viewBox="0 0 612 792"
	 style="enable-background:new 0 0 612 792;" xml:space="preserve">
<style type="text/css">
	.st0{fill:#FFFFFF;}
	.st1{fill:#454754;}
	.st2{opacity:0.6;fill:#008C4F;enable-background:new    ;}
	.st3{opacity:0.6;fill:#147245;enable-background:new    ;}
	.st4{display:none;fill:#147245;}
	.st5{fill:#147245;}
</style>
<g>
	<path class="st0" d="M229.5,491.8l78.2-274.7c-48.5,3.1-96,4.4-96,4.4L206.5,553l155,2.2l-114.2-32.8
		C234.6,517.3,226.9,504.5,229.5,491.8z"/>
	<path class="st0" d="M68.8,320.9l79.1,321.3L295.8,604l-117.3-2.5c-15.3,0-25.5-10.2-25.5-25.5l5.7-287.4
		c-17.4,10-35.6,18.5-41.4,19.6L68.8,320.9z"/>
	<path class="st0" d="M438.6,354.1c2.5-10.2-5.1-17.8-15.3-22.9c-2.5-2.5-5.1-2.5-7.7-2.5c-1.5,0-3.9,0-6.2,0.5v33.3
		c1.2,0.6,2.4,1.2,3.6,1.9C423.3,366.8,436,361.7,438.6,354.1z"/>
	<path class="st0" d="M360.5,134.7L262,481.3c0,0,17.3,14.8,44,22.7s143.5,32.4,143.5,32.4l53.8-64.5c0,0,41.8-173.6,44.9-183.5
		c3.1-9.9,8.4-87.2,8.4-87.2L360.5,134.7z"/>
	<path class="st1" d="M415.6,328.6c2.6,0,5.1,0,7.7,2.5c10.2,5.1,17.8,12.7,15.3,22.9c-2.6,7.6-15.3,12.8-25.5,10.2
		c-1.2-0.6-2.4-1.2-3.6-1.9v52.4c3.5,0.4,7,0.4,11.3,0.4c30.6,0,58.6-20.4,66.3-51c10.2-35.7-12.8-73.9-51-84.1
		c-8.5-2.4-17.7-3.1-26.6-2.3v51.3C411.7,328.6,414.1,328.6,415.6,328.6z"/>
	<path class="st2" d="M415.6,328.6c2.6,0,5.1,0,7.7,2.5c10.2,5.1,17.8,12.7,15.3,22.9c-2.6,7.6-15.3,12.8-25.5,10.2
		c-1.2-0.6-2.4-1.2-3.6-1.9v52.4c3.5,0.4,7,0.4,11.3,0.4c30.6,0,58.6-20.4,66.3-51c10.2-35.7-12.8-73.9-51-84.1
		c-8.5-2.4-17.7-3.1-26.6-2.3v51.3C411.7,328.6,414.1,328.6,415.6,328.6z"/>
	<path class="st1" d="M349.3,326c-5.1,17.8-2.5,38.2,7.7,53.5c3.6,5.4,7.8,10.1,12.6,14.4c1.6-35.8,3.2-71.9,4.6-103.6
		C362.7,298.7,353.5,311.5,349.3,326z"/>
	<path class="st2" d="M349.3,326c-5.1,17.8-2.5,38.2,7.7,53.5c3.6,5.4,7.8,10.1,12.6,14.4c1.6-35.8,3.2-71.9,4.6-103.6
		C362.7,298.7,353.5,311.5,349.3,326z"/>
	<path class="st1" d="M363.2,555.6l-1.6-0.5l-155-2.2l5.1-331.5c0,0,47.6-1.3,96-4.4l12.6-44.1l-134.1-5
		c-15.3,0-25.5,10.2-25.5,25.5l-1.1,56c18.7-1.5,35.3-0.7,36.5,6.4c2.8,6.9-16.7,20.9-37.3,32.7L153,575.9
		c0,15.3,10.2,25.5,25.5,25.5l117.3,2.5l-147.9,38.3L68.8,320.9l48.5-12.8c5.9-1.2,24-9.6,41.4-19.6l0.8-39.1
		c-21.4,1.7-45.6,6.3-52.4,7.7l-73.9,20.4c-7.7,0-12.8,5.1-17.9,10.2c-2.5,5.1-2.5,12.8-2.5,20.4l91.8,372.3
		c2.5,12.8,12.8,20.4,25.5,20.4c2.5,0,5.1,0,5.1,0L334,652.4c12.8-2.6,23-17.8,17.9-30.6c0-5.1-5.1-7.7-7.7-12.8h38.3
		c12.7,0,25.5-10.2,25.5-25.4c-7.7,0.4-42.3,2.2-45,2.5C362.5,586.2,362.6,574.7,363.2,555.6z"/>
	<path class="st3" d="M363.2,555.6l-1.6-0.5l-155-2.2l5.1-331.5c0,0,47.6-1.3,96-4.4l12.6-44.1l-134.1-5
		c-15.3,0-25.5,10.2-25.5,25.5l-1.1,56c18.7-1.5,35.3-0.7,36.5,6.4c2.8,6.9-16.7,20.9-37.3,32.7L153,575.9
		c0,15.3,10.2,25.5,25.5,25.5l117.3,2.5l-147.9,38.3L68.8,320.9l48.5-12.8c5.9-1.2,24-9.6,41.4-19.6l0.8-39.1
		c-21.4,1.7-45.6,6.3-52.4,7.7l-73.9,20.4c-7.7,0-12.8,5.1-17.9,10.2c-2.5,5.1-2.5,12.8-2.5,20.4l91.8,372.3
		c2.5,12.8,12.8,20.4,25.5,20.4c2.5,0,5.1,0,5.1,0L334,652.4c12.8-2.6,23-17.8,17.9-30.6c0-5.1-5.1-7.7-7.7-12.8h38.3
		c12.7,0,25.5-10.2,25.5-25.4c4.8-14.9-6-37.7-18.2-25.6c-0.2,0.2-11.2,4.3-13.6-2.8C374.2,548.9,367.4,554.6,363.2,555.6z"/>
	<path class="st1" d="M196,255.9c-1.2-7.1-17.8-7.9-36.5-6.4l-0.8,39.1C179.3,276.7,198.8,262.8,196,255.9z"/>
	<path class="st3" d="M196,255.9c-1.2-7.1-17.8-7.9-36.5-6.4l-0.8,39.1C179.3,276.7,198.8,262.8,196,255.9z"/>
	<path class="st1" d="M586.1,170.4l-221.9-63.7c-12.8-2.5-25.5,5.1-30.6,17.8l-13.8,48.4l53.6,2l3.5-12.2l170.9,48.4l-91.8,318.7
		l-46.9-13.3v52.3l59.7,17.2c2.6,0,5.1,0,7.7,0c2.6,0,7.7,0,10.2,0c7.6-2.5,10.2-7.6,12.8-15.3L604,203.5c2.6-7.7,0-15.3-2.5-20.4
		C598.9,175.5,593.8,172.9,586.1,170.4z"/>
	<path class="st1" d="M363.1,212.5c-16.6,1.8-36.1,3.4-55.4,4.6l-78.2,274.7c-2.5,12.8,5.1,25.5,17.9,30.6l114.2,32.8l1.6,0
		c0.4-13.7,1-31.2,1.8-51.1l-79.4-22.5L363.1,212.5z"/>
	<path class="st1" d="M363.1,212.5l10.8-37.5l-53.6-2l-12.6,44.1C327,215.9,346.4,214.3,363.1,212.5z"/>
	<path class="st1" d="M363.2,555.6c0-0.1,0-0.3,0-0.4l-1.6,0L363.2,555.6z"/>
	<path class="st0" d="M405.5,331.1c-2.5,0-7.7,5.1-7.7,10.2c-2.5,5.1,0,10.2,2.5,12.7c1.9,3.9,5.4,6.3,9.1,8.3v-33.3
		C408,329.5,406.5,330.1,405.5,331.1z"/>
	<path class="st1" d="M408,583.6C408,583.6,408,583.6,408,583.6c1,0,1.5,0,1.5,0V569l-3.6-1C408.1,572.4,409,577.8,408,583.6z"/>
	<path class="st0" d="M377.4,162.8l-3.5,12.2l10.1,0.4c10.1,0,18,4.4,22.2,11.9h3.3v13.6c0,3.9-12.7,7.1-31.6,9.8
		c-4.6,0.6-9.6,1.3-14.8,1.8l-77.5,269.1l79.4,22.5l44.5,12.6l46.9,13.3l91.8-318.7L377.4,162.8z M420.8,415.3
		c-4.2,0-7.7,0-11.3-0.4c-2.8-0.3-5.7-1-9.1-2.1c-11.6-5-22.1-11-30.8-18.8c-4.7-4.2-9-9-12.6-14.4c-10.2-15.3-12.8-35.7-7.7-53.5
		c4.1-14.5,13.3-27.3,24.9-35.7c2.7-1.9,5.4-3.6,8.3-5.1c8-4,17.3-6.6,27-7.4c8.9-0.8,18-0.1,26.6,2.3c38.3,10.2,61.2,48.5,51,84.1
		C479.4,394.9,451.4,415.3,420.8,415.3z"/>
	<path class="st2" d="M374.2,290.3c-1.5,31.8-3.1,67.9-4.6,103.6c8.7,7.8,19.2,13.8,30.8,18.8c3.4,1.1,6.3,1.8,9.1,2.1v-52.4
		c-3.8-2.1-7.2-4.5-9.1-8.3c-2.5-2.5-5.1-7.7-2.5-12.7c0-5.1,5.1-10.2,7.7-10.2c1-1,2.5-1.7,4-2v-51.3c-9.7,0.9-19,3.4-27,7.4
		C379.6,286.7,376.9,288.4,374.2,290.3z"/>
	<path class="st4" d="M405.9,567.9l-42.7-12.3c-0.6,19-0.7,30.5-0.2,30.5c2.7-0.2,37.3-2.1,45-2.5c0,0,0-0.1,0-0.1
		C409,577.8,408.1,572.4,405.9,567.9z"/>
	<path class="st1" d="M365,504.1c-0.8,19.9-1.4,37.5-1.8,51.1l21.9,0.3c9.5,0,17.1,5,20.8,12.4l3.6,1v-52.3L365,504.1z"/>
	<path class="st1" d="M405.9,567.9c-3.7-7.4-11.3-12.4-20.8-12.4l-21.9-0.3c0,0.1,0,0.3,0,0.4L405.9,567.9z"/>
</g>
<rect x="-221.1" y="269.8" class="st1" width="4.1" height="4.1"/>
<path class="st5" d="M293.7,527.3"/>
</svg>
